<svg width="353" height="353" xmlns="http://www.w3.org/2000/svg" xmlns:xlink="http://www.w3.org/1999/xlink" xml:space="preserve" overflow="hidden"><g><path d="M176.5 73.5417C180.545 73.5417 183.854 76.851 183.854 80.8958 183.854 84.9406 180.545 88.25 176.5 88.25 172.455 88.25 169.146 84.9406 169.146 80.8958 169.146 76.851 172.455 73.5417 176.5 73.5417ZM220.625 294.167C220.625 290.122 217.316 286.812 213.271 286.812L187.531 286.812 187.531 100.017C190.841 98.1781 193.782 95.2365 195.621 91.9271L266.221 91.9271 245.629 198.562 260.705 198.562 276.884 114.725 297.476 198.562 312.552 198.562 285.709 91.9271 290.49 91.9271C296.741 91.9271 301.521 87.1469 301.521 80.8958 301.521 74.6448 296.741 69.8646 290.49 69.8646L195.621 69.8646C193.782 66.5552 190.841 63.6135 187.531 61.775L187.531 40.4479C187.531 34.1969 182.751 29.4167 176.5 29.4167 170.249 29.4167 165.469 34.1969 165.469 40.4479L165.469 61.775C162.159 63.6135 159.218 66.5552 157.379 69.8646L62.5104 69.8646C56.2594 69.8646 51.4792 74.6448 51.4792 80.8958 51.4792 86.0437 55.1562 90.824 60.3042 91.5594L39.3448 198.562 54.4208 198.562 70.6 114.725 91.5594 198.562 106.635 198.562 79.7927 91.9271 157.011 91.9271C158.85 95.2365 161.792 98.1781 165.101 100.017L165.101 286.812 139.361 286.812C135.317 286.812 132.007 290.122 132.007 294.167L132.007 301.521 88.25 301.521 88.25 323.583 264.75 323.583 264.75 301.521 220.625 301.521 220.625 294.167Z" fill="#000000 "/><path d="M117.667 209.594 29.4167 209.594C29.4167 221.728 49.2729 231.656 73.5417 231.656 97.8104 231.656 117.667 221.728 117.667 209.594Z" fill="#000000 "/><path d="M235.333 209.594C235.333 221.728 255.19 231.656 279.458 231.656 303.727 231.656 323.583 221.728 323.583 209.594L235.333 209.594Z" fill="#000000 "/></g></svg>